<svg width="182" height="182" viewBox="0 0 182 182" fill="none" xmlns="http://www.w3.org/2000/svg">
<path d="M153.2 10.5656C144.918 12.2356 130.127 24.5734 119.629 38.5813C118.266 40.4217 116.971 41.9214 116.766 41.9214C116.528 41.9214 114.994 41.6146 113.324 41.2397C100.168 38.3768 84.6948 38.5813 71.0618 41.8191L67.3128 42.7053L66.563 41.7169C57.3266 29.5835 48.9764 21.4378 40.4218 16.0528C36.3319 13.5307 33.5371 12.5083 30.3334 12.4742C27.3 12.4401 25.9027 13.0877 24.5053 15.2008C22.5967 17.9955 20.654 23.994 19.5292 30.5038C18.7794 34.8663 18.6772 49.9307 19.3588 54.8727C19.9723 59.2352 21.4719 66.9038 21.7446 67.2105C21.8809 67.3468 22.8352 66.9038 23.8918 66.2562C25.0847 65.5064 26.9251 64.7907 28.8678 64.3476L31.9352 63.5978L31.2877 62.5071C29.5154 59.4738 28.3566 48.6697 28.9701 40.524C29.5154 32.9236 30.4697 28.0498 31.6967 26.482C33.6053 24.0622 36.9113 25.4596 42.8075 31.1172C46.9656 35.1049 51.8394 40.8648 53.5435 43.7959C54.7704 45.909 54.8727 48.1925 53.8502 49.5217C53.4412 50.033 49.5558 53.4412 45.1592 57.1221C40.7626 60.8371 37.1498 63.9727 37.1498 64.109C37.1498 64.2453 37.5929 64.4498 38.1723 64.5862C39.3652 64.8588 42.2036 68.0019 44.0781 69.6719L46.9219 71.0938L46.318 68.2671C46.5566 67.3468 47.3746 65.336 48.1244 63.7341C50.6806 58.3832 55.8611 54.1569 60.9734 53.1686C67.0401 52.0098 73.8907 54.0888 78.185 58.4172C80.6731 60.9053 82.1386 63.3251 83.2292 66.8015C83.9109 69.051 84.0131 70.0053 83.9791 74.8109C83.945 79.7869 83.8768 80.6049 82.8884 84.1835C80.4004 93.488 73.9588 105.485 66.2903 115.13C63.6319 118.47 64.7225 118.402 55.7248 116.016C46.1476 113.46 35.3435 108.825 28.7656 104.428C27.1978 103.406 24.6075 101.293 23.0056 99.7933C21.4038 98.2937 20.0064 97.1348 19.9042 97.203C19.836 97.3053 19.5633 99.1116 19.3247 101.191C18.9498 104.769 18.8817 105.008 18.2341 104.872C17.8592 104.769 15.712 104.224 13.4967 103.645C11.2472 103.031 9.10003 102.588 8.75921 102.656C8.3843 102.724 7.77082 103.167 7.39591 103.679C6.81651 104.463 6.78243 104.735 7.12325 105.621C7.6004 106.712 8.41838 107.155 11.0768 107.7C12.0311 107.905 14.1101 108.484 15.7802 108.961L18.7453 109.848V112.267C18.7453 113.597 18.8476 115.505 18.9498 116.494L19.1884 118.266H16.2232C12.4742 118.266 7.53224 118.811 4.53299 119.561C1.94273 120.209 1.05658 121.129 1.49965 122.833C1.87456 124.367 2.82887 124.537 6.6461 123.753C10.7019 122.935 18.3704 122.458 19.2566 122.935C19.6656 123.174 20.1768 124.537 20.8244 127.161C21.3697 129.309 21.8128 131.149 21.8128 131.251C21.8128 131.388 20.9948 131.592 20.0405 131.694C17.5184 132.035 12.6105 133.262 11.4858 133.842C10.1566 134.523 9.67943 135.648 10.2588 136.875C10.8382 138.102 12.2697 138.306 14.5873 137.557C15.4734 137.284 17.4843 136.807 19.0862 136.5C20.688 136.193 22.324 135.887 22.733 135.818C23.3465 135.682 23.7214 136.159 25.3914 139.295C28.2884 144.816 30.4356 147.679 34.9345 152.212C45.7727 163.152 59.542 168.265 82.1386 169.764C89.3982 170.242 103.065 169.969 109.2 169.219C131.456 166.527 148.463 157.393 158.108 142.976C160.392 139.533 162.709 135.103 163.561 132.512C163.868 131.558 164.175 131.217 164.686 131.217C165.64 131.217 173.548 132.819 174.638 133.262C176.581 133.978 178.455 132.172 177.637 130.331C177.092 129.172 175.729 128.661 170.344 127.605C167.856 127.093 165.777 126.65 165.709 126.616C165.538 126.446 167.004 119.152 167.276 118.913C167.549 118.641 175.013 117.925 177.672 117.925C179.819 117.925 180.637 117.278 180.637 115.608C180.637 114.824 180.398 114.381 179.751 113.972C179.001 113.46 178.285 113.426 174.4 113.597C171.912 113.733 169.355 113.903 168.708 114.04L167.515 114.244V109.779V105.315L170.242 104.156C171.741 103.508 173.888 102.724 175.013 102.384C176.99 101.804 178.592 100.611 178.592 99.7251C178.592 98.7367 177.194 97.4757 176.104 97.4757C175.081 97.4757 171.06 98.7708 168.333 99.9637L167.072 100.509L166.697 97.8847C166.186 94.4083 164.618 87.4895 164.277 87.1487C164.141 86.9783 163.561 87.8644 162.982 89.0914C157.87 99.9978 144.305 109.677 124.776 116.357C122.254 117.209 120.038 117.925 119.834 117.925C119.322 117.925 113.733 111.654 110.154 107.053C103.679 98.8049 99.1457 90.9319 96.76 83.8427C95.4307 79.9232 95.2944 79.2416 95.1581 75.1517C95.0217 71.3686 95.124 70.2438 95.7375 67.824C97.612 60.3599 101.838 55.3839 107.973 53.5094C110.7 52.6573 115.744 52.5892 118.743 53.373C124.878 54.9408 129.377 59.6442 130.876 66.0176C131.081 67.006 132.132 68.25 132.234 68.25C132.337 68.25 135.648 69.0339 136.5 68.25C139.567 65.5575 141.783 61.3483 144.884 61.3483C145.6 61.3483 146.214 61.2802 146.214 61.212C146.214 61.1438 144.646 59.576 142.737 57.6674C139.09 54.1229 135.614 51.1236 132.376 48.7038C129.206 46.3862 129.275 45.5 132.853 40.7285C138.375 33.3667 147.679 25.9026 151.326 25.9026C152.962 25.9026 154.734 27.0614 155.518 28.6974C157.699 33.1281 158.006 46.3862 156.234 57.7697C155.245 64.109 155.143 63.3592 157.393 64.9611C158.483 65.745 160.051 67.2787 160.903 68.4375C161.721 69.5622 162.505 70.5165 162.607 70.5165C162.743 70.5506 162.914 70.0393 163.016 69.4259C163.118 68.8465 163.596 66.1199 164.073 63.3933C166.561 49.2491 166.663 32.5487 164.311 22.6648C162.505 15.1326 160.494 11.6562 157.393 10.736C155.484 10.1906 155.211 10.1566 153.2 10.5656ZM98.3959 108.587C103.611 109.95 105.724 112.983 104.122 116.766C103.338 118.641 99.5888 122.117 96.9985 123.378L94.7491 124.503V126.48C94.7491 127.877 94.8854 128.491 95.1922 128.491C96.6577 128.491 102.281 127.332 105.144 126.446C110.87 124.639 114.755 125.389 118.164 128.9C120.311 131.081 121.333 133.569 121.333 136.534C121.333 137.863 121.095 139.602 120.856 140.385C119.731 143.487 115.028 149.076 111.415 151.599C101.088 158.688 86.0581 159.403 74.6746 153.337C70.0393 150.883 65.3019 146.248 62.9843 141.953C60.7349 137.761 61.4165 132.581 64.7225 129.07C66.8015 126.855 69.085 125.696 71.948 125.491C73.8225 125.355 74.845 125.525 77.742 126.412C81.1502 127.434 86.4671 128.491 88.1371 128.491C88.921 128.491 88.9551 128.388 88.9551 126.343V124.196L86.8079 123.14C85.615 122.56 83.8086 121.299 82.7521 120.345C76.6173 114.721 79.1734 109.541 88.7847 108.075C91.3408 107.666 95.8056 107.905 98.3959 108.587Z" fill="white"/>
<path d="M62.7814 114.701C63.065 114.363 63.4292 113.908 63.9415 113.264C71.4238 103.853 77.6344 92.2189 79.9904 83.4082L79.9962 83.3848C80.4825 81.6241 80.6936 80.712 80.8107 79.6826C80.9033 78.8683 80.9422 77.943 80.963 76.4668L80.9786 74.7901C81.012 70.0816 80.9051 69.4797 80.3663 67.6992C79.4175 64.675 78.2024 62.6769 76.0636 60.5381C72.4554 56.9301 66.4556 55.1113 61.2892 56.1446L61.2814 56.1455L60.9269 56.2237C57.2424 57.1143 52.9154 60.6581 50.8312 65.0264C50.2008 66.3752 49.5846 67.9047 49.3175 68.7002V76.4219L44.4161 72.4063L42.1769 70.5703L42.1388 70.5401L42.1027 70.5078C38.6641 67.4991 36.9397 66.4648 34.0773 66.4151C33.2254 66.4055 31.5602 66.675 29.6915 67.1875C27.8166 67.7017 26.2364 68.3231 25.4982 68.7774L25.4523 68.8057L25.4044 68.8321L24.5968 69.2774C24.3341 69.4176 24.0824 69.5469 23.8546 69.6582C23.6341 69.766 23.3878 69.8809 23.1544 69.9727C23.1383 69.979 23.1204 69.9851 23.1017 69.9922C23.0727 70.0171 23.0395 70.0429 23.005 70.0733C22.6572 70.379 22.1757 70.8361 21.6632 71.3633C17.9266 75.2697 16.5925 80.2751 17.9513 86.1944C17.9534 86.2021 17.9576 86.2116 17.9611 86.2237C17.9702 86.2555 17.9821 86.2984 17.9991 86.3516C18.0335 86.459 18.0805 86.5947 18.1398 86.7588C18.2586 87.0877 18.4157 87.4938 18.6027 87.9502C18.9769 88.8636 19.4462 89.9236 19.9122 90.8877L19.922 90.9072C20.6973 92.5421 21.1419 93.363 21.6202 94.0391C22.0929 94.707 22.6671 95.3309 23.8419 96.4893C29.5196 102.039 34.9833 105.333 46.4308 109.852L46.4318 109.853C50.1577 111.324 59.0913 113.961 62.7814 114.701ZM21.1075 70.1602C21.1618 70.1733 21.2147 70.1857 21.2667 70.1953C21.2147 70.1857 21.1618 70.1733 21.1075 70.1602Z" stroke="white" stroke-width="6"/>
<path d="M120.571 114.588C121.437 114.311 122.585 113.931 123.816 113.515V113.516C132.048 110.71 139.605 107.498 145.801 103.945C152.04 100.367 156.68 96.5639 159.33 92.6712L159.335 92.6644L159.339 92.6585C159.968 91.7446 160.499 90.4124 160.955 88.8528C161.427 87.2392 161.68 85.9379 162.026 84.5921V84.5911C162.382 83.1529 162.434 81.0682 162.144 78.8479C161.855 76.6349 161.268 74.6094 160.587 73.2874L160.583 73.2796L160.58 73.2728C159.677 71.4943 158.11 69.3854 156.284 67.5667C154.416 65.7069 152.568 64.442 151.2 63.9895L151.172 63.9798C146.803 62.4896 142.921 64.0603 138.508 67.6409L135.778 70.3714L132.031 74.1175L130.745 68.9778L129.408 63.6292C127.163 59.3522 123.775 57.7552 118 56.2796L117.993 56.2776C116.728 55.951 114.699 55.7242 112.6 55.7083C110.444 55.6919 108.672 55.9034 107.79 56.2083L107.773 56.2142L107.335 56.3714C102.876 58.0554 100.326 61.7788 98.6497 68.5452L98.6458 68.5608L98.47 69.2806C98.1042 70.8617 98.0427 71.8833 98.1566 75.0433V75.052C98.2251 77.1091 98.2903 78.0921 98.4612 79.014C98.6334 79.9424 98.9287 80.8972 99.6009 82.8792L99.6028 82.886C101.846 89.5522 106.173 97.1246 112.514 105.2L112.523 105.211C114.263 107.449 116.511 110.116 118.384 112.219C119.235 113.175 119.99 113.991 120.571 114.588Z" stroke="white" stroke-width="6"/>
</svg>
